<?xml version="1.0" encoding="utf-8"?>
<!-- Generator: Adobe Illustrator 24.0.2, SVG Export Plug-In . SVG Version: 6.00 Build 0)  -->
<svg version="1.1" id="Capa_1" xmlns="http://www.w3.org/2000/svg" xmlns:xlink="http://www.w3.org/1999/xlink" x="0px" y="0px"
	 viewBox="0 0 1035.5 245.1" style="enable-background:new 0 0 1035.5 245.1;" xml:space="preserve">
<style type="text/css">
	.st0{fill:#FDF7FA;}
	.st1{fill:#FB4374;}
</style>
<g>
	<path class="st0" d="M99.5,135.2c4.8,4.6,11.1,4.9,16.3,7.6c21.3,11,30.9,26.9,28.4,48c-2.5,20.4-16.7,34.4-39.5,39.5
		c-22.6,5-45.5,2-68.2,2.6c-8.7,0.2-20,3.8-25.4-1.4c-5.9-5.6-2-17.2-2-26.1C8.8,154.1,9.1,102.8,8.8,51.5c-0.1-7.8,1.9-10,9.8-9.8
		c18.4,0.6,36.9,0.1,55.3,0.3c11,0.1,21.7,2.2,31.9,6.6c16.7,7.2,26.1,19.7,27.6,37.9c1.5,18.4-6.4,32-21.7,41.7
		C107.9,130.7,103.8,132.8,99.5,135.2z M34.9,182.8c0,10.9,0.1,21.9-0.1,32.8c-0.1,4.7,1.6,6.7,6.5,6.6c13.4-0.2,26.9,0.6,40.3-0.3
		c14.8-1,28.3-5.4,34.7-21.1c9.7-23.7-1.7-46.7-26.3-53.6c-16.3-4.6-32.9-2.6-49.3-2.9c-5.4-0.1-5.8,3.4-5.8,7.5
		C35,162.2,34.9,172.5,34.9,182.8z M34.9,91.1c0,11,0,21.9,0,32.9c0,3.9,0.6,6.7,5.5,6.7c12.8,0,25.7,0.6,38.2-2.7
		c21.2-5.6,32.4-22.2,29.7-43.5C105.9,65.4,91.5,53.7,70,53.3c-9.4-0.1-18.8,0.2-28.2-0.1c-5.3-0.2-7.2,1.6-7,6.9
		C35.1,70.5,34.9,80.8,34.9,91.1z"/>
	<path class="st0" d="M518,181.1c0,11.6,0,23.2,0,34.7c0,3.3-0.1,5.8-4,7.3c-33.6,13-67.7,18.7-102.4,5.4
		c-39.4-15.2-62.6-58.9-56.2-104.1c7-50.2,41-83.1,91.5-87.3c23.5-2,44.2,6.4,62.3,21.3c4.2,3.4,2.8,6.2-0.2,9.2
		c-2.6,2.6-4.5,5.7-8.9,1.3c-39.2-39.5-93.3-19.2-111.7,28.8c-14.2,37-6.4,80.1,21,106.9c22.1,21.6,48.5,23.4,76.8,16.6
		c4.8-1.2,6.2-4.1,6.2-8.9c-0.2-17.8-0.3-35.7,0-53.5c0.1-6-1.5-8.6-7.8-7.9c-4,0.5-8.1-0.1-12.2,0.1c-4.5,0.3-6-1.5-6.1-6
		c0-4.8,2.3-5.7,6.4-5.7c12.8,0.1,25.7,0.2,38.5,0c5.3-0.1,7.1,1.7,7,7C517.7,157.9,518,169.5,518,181.1z"/>
	<path class="st0" d="M330.2,233c-9.9,3.1-14.4-3.3-18-13c-6.3-17.3-13.9-34.1-20.5-51.3c-2.3-5.9-5.4-8.7-12.3-8.5
		c-20,0.5-40,0.4-60,0.1c-5.9-0.1-8.9,1.9-11,7.4c-7.6,19.5-15.6,38.8-23.5,58.2c-0.8,2-1.4,4.5-2.9,5.7c-3.7,2.9-8.8,3.1-12.3,0.9
		c-3-1.8,0.2-5.6,1.3-8.3c23.3-57.6,46.7-115.1,70.1-172.7c4.2-10.4,11-13.9,21.5-11.5c4.5,1,4.5,4.9,5.7,7.8
		c23.3,54.2,46.4,108.5,69.6,162.7c1.8,4.3,3.4,8.8,5.6,12.9c3.6,6.9,3,10.6-5.9,9.5C335.6,232.8,333.7,233,330.2,233z M249.8,66.1
		c-11,27.2-21.3,52.5-31.5,77.8c-2.1,5.2,2.1,4.7,5.1,4.8c17.8,0.1,35.6-0.1,53.4,0.1c6.3,0.1,5.7-2.9,4.1-6.9
		c-2.4-5.8-4.8-11.5-7.2-17.2C266,105.8,258.3,86.9,249.8,66.1z"/>
	<path class="st0" d="M1010,66.4c-18.4-13.1-37.7-19.9-59.7-16.8c-14.8,2.1-26.5,9.2-32.2,23.9c-5.4,13.7,0.5,27.5,15.5,36.1
		c15.1,8.6,32.2,11.9,48.1,18.2c3.8,1.5,7.6,2.8,11.3,4.5c37.4,16.9,43.3,60.4,11.6,86.9c-21.5,18-46.9,20.8-73.5,17.4
		c-7.7-1-15.3-3.2-22.7-5.6c-15.6-5.2-15.5-5.5-13.9-23.9c14.4,9.1,29.4,15.8,46,18.2c22.5,3.3,45.5-6.2,55.6-23.3
		c9.7-16.5,5.6-33.7-10.8-43.6c-15.2-9.2-32.6-12.4-48.9-18.6c-16-6.1-31.4-13.2-38.8-30.2c-11.9-27.3,2.8-57.3,32.7-67.2
		c25.7-8.5,50.6-4.8,75,5.3C1015.4,51.8,1008.6,59.9,1010,66.4z"/>
	<path class="st0" d="M707.2,186.5c-6.2,26.9-23.3,42.9-49.9,48.6c-22.1,4.7-44.1,4.3-65.5-4.3c-22.8-9.2-34.9-27.1-35.6-50.7
		c-1.3-43.5-0.5-87-0.8-130.6c0-5.4,2-7,7.1-7c21.9,0.4,18-2.2,18.1,17.7c0.2,37.3,0,74.5,0.1,111.8c0.1,17.1,3.4,33,18.4,44.1
		c29.8,22,78.2,9.2,90.4-23.7c1.1-3,1.9-5.9,1.7-9.1c2.2-4.7,1.7-9.8,1.7-14.7c0-38.4,0-76.8,0-115.3c0-5.2-1.3-10.5,7.4-10.7
		c9.1-0.1,8.1,5.3,8.1,11c-0.2,43.7-0.4,87.4-0.5,131.2c0,0,0,0,0,0C707.6,185.3,707.4,185.9,707.2,186.5z"/>
	<path class="st0" d="M743.9,137.5c0-29.1,0.2-58.2-0.1-87.4c-0.1-6.7,2-8.4,8.5-8.3c31.9,0.3,63.9,0.1,95.8,0.1
		c4.2,0,8.8-1.3,8.6,6.1c-0.2,6.8-4.4,5.5-8.3,5.5c-23.5,0.1-47,0.2-70.4-0.1c-6-0.1-8.2,1.5-8,7.8c0.4,18.2,0.4,36.3,0,54.5
		c-0.2,7,2.7,8.3,8.8,8.2c20.7-0.3,41.3-0.2,62,0c3.9,0,9.1-1.9,9.2,5.6c0.1,8-5.3,6.1-9.6,6.2c-21,0.1-42,0.2-62.9-0.1
		c-5.8-0.1-7.5,1.6-7.4,7.4c0.3,22.9,0.3,45.7,0,68.6c-0.1,6.5,1.8,8.6,8.4,8.5c23.8-0.3,47.6-0.1,71.4-0.2c4.7,0,8.5-0.2,8.4,6.6
		c-0.1,6.9-4.2,6.4-8.7,6.4c-32.2,0-64.5-0.2-96.7,0.1c-7.2,0.1-8.9-2.4-8.9-9.2C744.1,195.2,743.9,166.4,743.9,137.5z"/>
	<path class="st0" d="M813.2,20.3c-11.6,0-23.2,0.1-34.7,0c-4,0-9.1,1.6-8.9-5.9c0.2-6.7,4.6-5.5,8.5-5.5c23.8-0.1,47.6,0,71.3-0.1
		c4.3,0,8-0.2,8,6.1c-0.1,6-3.8,5.4-7.5,5.4C837.6,20.3,825.4,20.3,813.2,20.3z"/>
	<path class="st1" d="M707.2,186.5c0.2-0.6,0.5-1.1,0.7-1.7C707.7,185.4,707.5,185.9,707.2,186.5z"/>
</g>
</svg>
